<?xml version="1.0" encoding="UTF-8"?> <svg xmlns="http://www.w3.org/2000/svg" width="607" height="112" viewBox="0 0 607 112" fill="none"><g clip-path="url(#clip0_1044_873)"><path fill-rule="evenodd" clip-rule="evenodd" d="M104.894 19.0898H127.933L98.264 56.0988L128.08 92.6568H105.731L79.147 64.0298V47.6448L104.895 19.0908L104.894 19.0898ZM73.791 19.1628H74.398L74.325 92.6558H74.314L56.473 21.2818C62.047 19.9178 67.841 19.1628 73.791 19.1628ZM131.478 19.1628H151.578V92.6558H131.478V19.1628ZM156.4 19.1628H204.821V35.7058H190.661V92.7298H170.56V35.7058H156.4V19.1628Z" fill="white"></path><path fill-rule="evenodd" clip-rule="evenodd" d="M42.523 25.4927L73.537 92.7037L27.269 35.0847C31.91 31.2777 36.989 28.0837 42.523 25.4927ZM16.658 45.7447L73.549 92.7297L7.012 61.2057C9.556 55.6437 12.848 50.4617 16.658 45.7447ZM2.225 74.6037L73.549 92.7297H-0.0910034C-0.0180034 86.4797 0.728997 80.3887 2.225 74.6037ZM73.537 92.7047L73.548 92.7187V92.7297L73.537 92.7047Z" fill="white"></path><path d="M351.223 44.1372C344.961 44.1372 340.817 48.8112 340.817 55.8662C340.817 62.9212 344.962 67.6832 351.223 67.6832C357.395 67.6832 361.54 62.9212 361.54 55.8662C361.54 48.8112 357.395 44.1372 351.223 44.1372Z" fill="white"></path><path d="M460.838 62.215C460.838 65.919 463.483 67.947 466.746 67.947C471.244 67.947 475.3 64.243 475.3 54.19V45.46L465.159 54.19C461.367 57.453 460.838 60.187 460.838 62.215Z" fill="white"></path><path d="M550.258 0H235.742V111.82H550.259C581.137 111.82 606.169 86.788 606.169 55.91C606.169 25.032 581.136 0 550.258 0ZM319.123 80.911H300.075V51.104C300.075 46.077 297.164 44.137 294.078 44.137C289.228 44.137 285.701 48.811 285.701 58.424V80.912H266.652V30.909H285.701V43.167H288.875C288.875 33.995 295.842 29.674 303.691 29.674C313.391 29.674 319.124 35.583 319.124 47.135V80.911H319.123ZM351.223 82.587C333.938 82.587 322.385 71.917 322.385 55.866C322.385 39.904 333.938 29.234 351.223 29.234C368.508 29.234 379.972 39.904 379.972 55.866C379.972 71.917 368.508 82.587 351.223 82.587ZM421.768 80.915H394.879L377.145 31.001H398.142L403.433 49.079C405.589 56.447 406.367 61.265 406.496 68.568H410.063C410.207 61.537 411.009 56.799 413.39 49.343L419.299 31H438.973L421.769 80.914L421.768 80.915ZM494.349 81H475.3V68.389H472.126C471.42 77.296 465.159 82.235 456.252 82.235C447.081 82.235 440.643 75.973 440.643 67.154C440.643 61.598 443.201 57.983 444.258 56.484C449.197 49.341 451.842 49.517 456.781 49.517H465.777V45.813H441.613V30.998H494.349V81ZM578.132 62.892L550.259 55.91L574.905 70.682C578.923 73.09 579.607 78.634 576.294 81.946C572.982 85.258 567.438 84.575 565.03 80.557L550.258 55.911L557.24 83.784C558.378 88.328 554.942 92.731 550.258 92.731C545.574 92.731 542.137 88.328 543.276 83.784L550.258 55.911L535.486 80.557C533.078 84.575 527.534 85.259 524.222 81.946C520.91 78.634 521.593 73.09 525.611 70.682L550.257 55.91L522.384 62.892C517.84 64.03 513.437 60.594 513.437 55.91C513.437 51.226 517.84 47.789 522.384 48.928L550.257 55.91L525.611 41.138C521.593 38.73 520.909 33.186 524.222 29.874C527.534 26.562 533.078 27.245 535.486 31.263L550.258 55.909L543.276 28.036C542.138 23.492 545.574 19.089 550.258 19.089C554.942 19.089 558.379 23.492 557.24 28.036L550.258 55.909L565.03 31.263C567.438 27.245 572.982 26.561 576.294 29.874C579.606 33.186 578.923 38.73 574.905 41.138L550.259 55.91L578.132 48.928C582.676 47.79 587.079 51.226 587.079 55.91C587.079 60.594 582.676 64.031 578.132 62.892Z" fill="white"></path></g><defs><clipPath id="clip0_1044_873"><rect width="606.259" height="111.82" fill="white"></rect></clipPath></defs></svg> 